
<svg xmlns="http://www.w3.org/2000/svg"
     xmlns:xlink="http://www.w3.org/1999/xlink" version="1.1" width="485"
     height="486">
    <defs/>
    <g transform=" scale(1) translate(-99,-62)">
        <rect x="189" y="119" width="2" height="2" fill="#000000" stroke="none"
              pointer-events="none"/>
        <rect x="189" y="179" width="2" height="2" fill="#000000" stroke="none"
              pointer-events="none"/>
        <path d="M 182 142.26 C 204 142.26 198 142.26 198 142.26" fill="none"
              stroke="#000000" stroke-width="2" stroke-linecap="round"
              stroke-miterlimit="10" pointer-events="none"/>
        <path d="M 189.86 142.54 C 189.86 142.54 189.86 142.54 182 157.26 C 197.72 157.26 197.72 157.26 197.72 157.26 Z"
              fill="#000000" stroke="#000000" stroke-width="1.49"
              stroke-linejoin="round" stroke-linecap="round"
              stroke-miterlimit="10" pointer-events="none"/>
        <path d="M 190 121 L 190 179" fill="#000000" stroke="#000000"
              stroke-width="2" stroke-linecap="square" stroke-miterlimit="10"
              pointer-events="none"/>
        <path d="M 208.25 138.77 L 212.49 143.01 L 215.32 135.94 Z"
              fill="#000000" stroke="#000000" stroke-linejoin="round"
              stroke-linecap="square" stroke-miterlimit="10"
              pointer-events="none"/>
        <path d="M 204 147.23 L 212.49 138.74" fill="none" stroke="#000000"
              stroke-width="2" stroke-linejoin="round" stroke-linecap="round"
              stroke-miterlimit="10" pointer-events="none"/>
        <path d="M 206.57 127.71 L 210.81 131.96 L 213.64 124.89 Z"
              fill="#000000" stroke="#000000" stroke-linejoin="round"
              stroke-linecap="round" stroke-miterlimit="10"
              pointer-events="none"/>
        <path d="M 202.33 136.22 L 210.81 127.73" fill="none" stroke="#000000"
              stroke-width="2" stroke-linejoin="round" stroke-linecap="round"
              stroke-miterlimit="10" pointer-events="none"/>
        <rect x="163" y="120" width="17" height="13" fill-opacity="0"
              fill="#dae2f2" stroke="none" pointer-events="none"/>
        <g fill="#000000" font-family="Arial,Helvetica" font-weight="bold"
           text-anchor="middle" font-size="12px">
            <text x="171.5" y="131.5">
                D1
            </text>
        </g>
        <rect x="156" y="136" width="20" height="13" fill-opacity="0"
              fill="#dae2f2" stroke="none" pointer-events="none"/>
        <g fill="#000000" font-family="Arial,Helvetica" font-weight="bold"
           text-anchor="middle" font-size="12px">
            <text x="166" y="147.5">
                Red
            </text>
        </g>
        <rect x="122" y="152" width="58" height="16" fill-opacity="0"
              fill="#dae2f2" stroke="none" pointer-events="none"/>
        <g fill="#000000" font-family="Arial,Helvetica" font-weight="bold"
           text-anchor="middle" font-size="12px">
            <text x="151" y="165">
                Error LED
            </text>
        </g>
        <rect x="189" y="189" width="2" height="2" fill="#000000" stroke="none"
              pointer-events="none"/>
        <rect x="189" y="249" width="2" height="2" fill="#000000" stroke="none"
              pointer-events="none"/>
        <path d="M 190 202 L 197 205 L 190 208" fill="none" stroke="#000000"
              stroke-width="2" stroke-linejoin="round" stroke-linecap="round"
              stroke-miterlimit="10" pointer-events="none"/>
        <path d="M 190 208 L 183 211 L 190 214" fill="none" stroke="#000000"
              stroke-width="2" stroke-linejoin="round" stroke-linecap="round"
              stroke-miterlimit="10" pointer-events="none"/>
        <path d="M 190 214 L 197 217 L 190 220" fill="none" stroke="#000000"
              stroke-width="2" stroke-linejoin="round" stroke-linecap="round"
              stroke-miterlimit="10" pointer-events="none"/>
        <path d="M 190 220 L 183 223 L 190 226" fill="none" stroke="#000000"
              stroke-width="2" stroke-linejoin="round" stroke-linecap="round"
              stroke-miterlimit="10" pointer-events="none"/>
        <path d="M 190 226 L 197 229 L 190 232" fill="none" stroke="#000000"
              stroke-width="2" stroke-linejoin="round" stroke-linecap="round"
              stroke-miterlimit="10" pointer-events="none"/>
        <path d="M 190 232 L 183 235 L 190 238" fill="none" stroke="#000000"
              stroke-width="2" stroke-linejoin="round" stroke-linecap="round"
              stroke-miterlimit="10" pointer-events="none"/>
        <path d="M 190 191 L 190 201" fill="#000000" stroke="#000000"
              stroke-width="2" stroke-linecap="square" stroke-miterlimit="10"
              pointer-events="none"/>
        <path d="M 190 239 L 190 249" fill="#000000" stroke="#000000"
              stroke-width="2" stroke-linecap="square" stroke-miterlimit="10"
              pointer-events="none"/>
        <rect x="163" y="190" width="17" height="13" fill-opacity="0"
              fill="#dae2f2" stroke="none" pointer-events="none"/>
        <g fill="#000000" font-family="Arial,Helvetica" font-weight="bold"
           text-anchor="middle" font-size="12px">
            <text x="171.5" y="201.5">
                R1
            </text>
        </g>
        <rect x="158" y="206" width="18" height="13" fill-opacity="0"
              fill="#dae2f2" stroke="none" pointer-events="none"/>
        <g fill="#000000" font-family="Arial,Helvetica" font-weight="bold"
           text-anchor="middle" font-size="12px">
            <text x="167" y="217.5">
                220
            </text>
        </g>
        <path d="M 190 190 L 190 180" fill="none" stroke="#000000"
              stroke-width="2" stroke-miterlimit="10" pointer-events="none"/>
        <rect x="219" y="69" width="2" height="2" fill="#000000" stroke="none"
              pointer-events="none"/>
        <path d="M 209 91 C 231.02 91 231.02 91 231.02 91" fill="none"
              stroke="#000000" stroke-width="2" stroke-linecap="round"
              stroke-miterlimit="10" pointer-events="none"/>
        <path d="M 213 97 C 222.57 97 227 97 227 97" fill="none"
              stroke="#000000" stroke-width="2" stroke-linecap="round"
              stroke-miterlimit="10" pointer-events="none"/>
        <path d="M 217 103 C 220.12 103 223 103 223 103" fill="none"
              stroke="#000000" stroke-width="2" stroke-linecap="round"
              stroke-miterlimit="10" pointer-events="none"/>
        <path d="M 220 71 L 220 89" fill="#000000" stroke="#000000"
              stroke-width="2" stroke-linecap="square" stroke-miterlimit="10"
              pointer-events="none"/>
        <rect x="359" y="119" width="2" height="2" fill="#000000" stroke="none"
              pointer-events="none"/>
        <rect x="359" y="179" width="2" height="2" fill="#000000" stroke="none"
              pointer-events="none"/>
        <path d="M 352 142.26 C 374 142.26 368 142.26 368 142.26" fill="none"
              stroke="#000000" stroke-width="2" stroke-linecap="round"
              stroke-miterlimit="10" pointer-events="none"/>
        <path d="M 359.86 142.54 C 359.86 142.54 359.86 142.54 352 157.26 C 367.72 157.26 367.72 157.26 367.72 157.26 Z"
              fill="#000000" stroke="#000000" stroke-width="1.49"
              stroke-linejoin="round" stroke-linecap="round"
              stroke-miterlimit="10" pointer-events="none"/>
        <path d="M 360 121 L 360 179" fill="#000000" stroke="#000000"
              stroke-width="2" stroke-linecap="square" stroke-miterlimit="10"
              pointer-events="none"/>
        <path d="M 378.25 138.77 L 382.49 143.01 L 385.32 135.94 Z"
              fill="#000000" stroke="#000000" stroke-linejoin="round"
              stroke-linecap="square" stroke-miterlimit="10"
              pointer-events="none"/>
        <path d="M 374 147.23 L 382.49 138.74" fill="none" stroke="#000000"
              stroke-width="2" stroke-linejoin="round" stroke-linecap="round"
              stroke-miterlimit="10" pointer-events="none"/>
        <path d="M 376.57 127.71 L 380.81 131.96 L 383.64 124.89 Z"
              fill="#000000" stroke="#000000" stroke-linejoin="round"
              stroke-linecap="round" stroke-miterlimit="10"
              pointer-events="none"/>
        <path d="M 372.33 136.22 L 380.81 127.73" fill="none" stroke="#000000"
              stroke-width="2" stroke-linejoin="round" stroke-linecap="round"
              stroke-miterlimit="10" pointer-events="none"/>
        <rect x="333" y="120" width="17" height="13" fill-opacity="0"
              fill="#dae2f2" stroke="none" pointer-events="none"/>
        <g fill="#000000" font-family="Arial,Helvetica" font-weight="bold"
           text-anchor="middle" font-size="12px">
            <text x="341.5" y="131.5">
                D2
            </text>
        </g>
        <rect x="314" y="136" width="36" height="13" fill-opacity="0"
              fill="#dae2f2" stroke="none" pointer-events="none"/>
        <g fill="#000000" font-family="Arial,Helvetica" font-weight="bold"
           text-anchor="middle" font-size="12px">
            <text x="332" y="147.5">
                Green
            </text>
        </g>
        <rect x="234" y="152" width="116" height="16" fill-opacity="0"
              fill="#dae2f2" stroke="none" pointer-events="none"/>
        <g fill="#000000" font-family="Arial,Helvetica" font-weight="bold"
           text-anchor="middle" font-size="12px">
            <text x="292" y="165">
                Devices Found LED
            </text>
        </g>
        <rect x="359" y="189" width="2" height="2" fill="#000000" stroke="none"
              pointer-events="none"/>
        <rect x="359" y="249" width="2" height="2" fill="#000000" stroke="none"
              pointer-events="none"/>
        <path d="M 360 202 L 367 205 L 360 208" fill="none" stroke="#000000"
              stroke-width="2" stroke-linejoin="round" stroke-linecap="round"
              stroke-miterlimit="10" pointer-events="none"/>
        <path d="M 360 208 L 353 211 L 360 214" fill="none" stroke="#000000"
              stroke-width="2" stroke-linejoin="round" stroke-linecap="round"
              stroke-miterlimit="10" pointer-events="none"/>
        <path d="M 360 214 L 367 217 L 360 220" fill="none" stroke="#000000"
              stroke-width="2" stroke-linejoin="round" stroke-linecap="round"
              stroke-miterlimit="10" pointer-events="none"/>
        <path d="M 360 220 L 353 223 L 360 226" fill="none" stroke="#000000"
              stroke-width="2" stroke-linejoin="round" stroke-linecap="round"
              stroke-miterlimit="10" pointer-events="none"/>
        <path d="M 360 226 L 367 229 L 360 232" fill="none" stroke="#000000"
              stroke-width="2" stroke-linejoin="round" stroke-linecap="round"
              stroke-miterlimit="10" pointer-events="none"/>
        <path d="M 360 232 L 353 235 L 360 238" fill="none" stroke="#000000"
              stroke-width="2" stroke-linejoin="round" stroke-linecap="round"
              stroke-miterlimit="10" pointer-events="none"/>
        <path d="M 360 191 L 360 201" fill="#000000" stroke="#000000"
              stroke-width="2" stroke-linecap="square" stroke-miterlimit="10"
              pointer-events="none"/>
        <path d="M 360 239 L 360 249" fill="#000000" stroke="#000000"
              stroke-width="2" stroke-linecap="square" stroke-miterlimit="10"
              pointer-events="none"/>
        <rect x="333" y="190" width="17" height="13" fill-opacity="0"
              fill="#dae2f2" stroke="none" pointer-events="none"/>
        <g fill="#000000" font-family="Arial,Helvetica" font-weight="bold"
           text-anchor="middle" font-size="12px">
            <text x="341.5" y="201.5">
                R2
            </text>
        </g>
        <rect x="328" y="206" width="18" height="13" fill-opacity="0"
              fill="#dae2f2" stroke="none" pointer-events="none"/>
        <g fill="#000000" font-family="Arial,Helvetica" font-weight="bold"
           text-anchor="middle" font-size="12px">
            <text x="337" y="217.5">
                220
            </text>
        </g>
        <path d="M 360 190 L 360 180" fill="none" stroke="#000000"
              stroke-width="2" stroke-miterlimit="10" pointer-events="none"/>
        <rect x="389" y="69" width="2" height="2" fill="#000000" stroke="none"
              pointer-events="none"/>
        <path d="M 379 91 C 401.02 91 401.02 91 401.02 91" fill="none"
              stroke="#000000" stroke-width="2" stroke-linecap="round"
              stroke-miterlimit="10" pointer-events="none"/>
        <path d="M 383 97 C 392.57 97 397 97 397 97" fill="none"
              stroke="#000000" stroke-width="2" stroke-linecap="round"
              stroke-miterlimit="10" pointer-events="none"/>
        <path d="M 387 103 C 390.12 103 393 103 393 103" fill="none"
              stroke="#000000" stroke-width="2" stroke-linecap="round"
              stroke-miterlimit="10" pointer-events="none"/>
        <path d="M 390 71 L 390 89" fill="#000000" stroke="#000000"
              stroke-width="2" stroke-linecap="square" stroke-miterlimit="10"
              pointer-events="none"/>
        <rect x="529" y="119" width="2" height="2" fill="#000000" stroke="none"
              pointer-events="none"/>
        <rect x="529" y="179" width="2" height="2" fill="#000000" stroke="none"
              pointer-events="none"/>
        <path d="M 522 142.26 C 544 142.26 538 142.26 538 142.26" fill="none"
              stroke="#000000" stroke-width="2" stroke-linecap="round"
              stroke-miterlimit="10" pointer-events="none"/>
        <path d="M 529.86 142.54 C 529.86 142.54 529.86 142.54 522 157.26 C 537.72 157.26 537.72 157.26 537.72 157.26 Z"
              fill="#000000" stroke="#000000" stroke-width="1.49"
              stroke-linejoin="round" stroke-linecap="round"
              stroke-miterlimit="10" pointer-events="none"/>
        <path d="M 530 121 L 530 179" fill="#000000" stroke="#000000"
              stroke-width="2" stroke-linecap="square" stroke-miterlimit="10"
              pointer-events="none"/>
        <path d="M 548.25 138.77 L 552.49 143.01 L 555.32 135.94 Z"
              fill="#000000" stroke="#000000" stroke-linejoin="round"
              stroke-linecap="square" stroke-miterlimit="10"
              pointer-events="none"/>
        <path d="M 544 147.23 L 552.49 138.74" fill="none" stroke="#000000"
              stroke-width="2" stroke-linejoin="round" stroke-linecap="round"
              stroke-miterlimit="10" pointer-events="none"/>
        <path d="M 546.57 127.71 L 550.81 131.96 L 553.64 124.89 Z"
              fill="#000000" stroke="#000000" stroke-linejoin="round"
              stroke-linecap="round" stroke-miterlimit="10"
              pointer-events="none"/>
        <path d="M 542.33 136.22 L 550.81 127.73" fill="none" stroke="#000000"
              stroke-width="2" stroke-linejoin="round" stroke-linecap="round"
              stroke-miterlimit="10" pointer-events="none"/>
        <rect x="503" y="120" width="17" height="13" fill-opacity="0"
              fill="#dae2f2" stroke="none" pointer-events="none"/>
        <g fill="#000000" font-family="Arial,Helvetica" font-weight="bold"
           text-anchor="middle" font-size="12px">
            <text x="511.5" y="131.5">
                D3
            </text>
        </g>
        <rect x="483" y="136" width="37" height="13" fill-opacity="0"
              fill="#dae2f2" stroke="none" pointer-events="none"/>
        <g fill="#000000" font-family="Arial,Helvetica" font-weight="bold"
           text-anchor="middle" font-size="12px">
            <text x="501.5" y="147.5">
                Yellow
            </text>
        </g>
        <rect x="427" y="152" width="93" height="13" fill-opacity="0"
              fill="#dae2f2" stroke="none" pointer-events="none"/>
        <g fill="#000000" font-family="Arial,Helvetica" font-weight="bold"
           text-anchor="middle" font-size="12px">
            <text x="473.5" y="163.5">
                Door Open LED
            </text>
        </g>
        <rect x="529" y="189" width="2" height="2" fill="#000000" stroke="none"
              pointer-events="none"/>
        <rect x="529" y="249" width="2" height="2" fill="#000000" stroke="none"
              pointer-events="none"/>
        <path d="M 530 202 L 537 205 L 530 208" fill="none" stroke="#000000"
              stroke-width="2" stroke-linejoin="round" stroke-linecap="round"
              stroke-miterlimit="10" pointer-events="none"/>
        <path d="M 530 208 L 523 211 L 530 214" fill="none" stroke="#000000"
              stroke-width="2" stroke-linejoin="round" stroke-linecap="round"
              stroke-miterlimit="10" pointer-events="none"/>
        <path d="M 530 214 L 537 217 L 530 220" fill="none" stroke="#000000"
              stroke-width="2" stroke-linejoin="round" stroke-linecap="round"
              stroke-miterlimit="10" pointer-events="none"/>
        <path d="M 530 220 L 523 223 L 530 226" fill="none" stroke="#000000"
              stroke-width="2" stroke-linejoin="round" stroke-linecap="round"
              stroke-miterlimit="10" pointer-events="none"/>
        <path d="M 530 226 L 537 229 L 530 232" fill="none" stroke="#000000"
              stroke-width="2" stroke-linejoin="round" stroke-linecap="round"
              stroke-miterlimit="10" pointer-events="none"/>
        <path d="M 530 232 L 523 235 L 530 238" fill="none" stroke="#000000"
              stroke-width="2" stroke-linejoin="round" stroke-linecap="round"
              stroke-miterlimit="10" pointer-events="none"/>
        <path d="M 530 191 L 530 201" fill="#000000" stroke="#000000"
              stroke-width="2" stroke-linecap="square" stroke-miterlimit="10"
              pointer-events="none"/>
        <path d="M 530 239 L 530 249" fill="#000000" stroke="#000000"
              stroke-width="2" stroke-linecap="square" stroke-miterlimit="10"
              pointer-events="none"/>
        <rect x="503" y="190" width="17" height="13" fill-opacity="0"
              fill="#dae2f2" stroke="none" pointer-events="none"/>
        <g fill="#000000" font-family="Arial,Helvetica" font-weight="bold"
           text-anchor="middle" font-size="12px">
            <text x="511.5" y="201.5">
                R3
            </text>
        </g>
        <rect x="498" y="206" width="18" height="13" fill-opacity="0"
              fill="#dae2f2" stroke="none" pointer-events="none"/>
        <g fill="#000000" font-family="Arial,Helvetica" font-weight="bold"
           text-anchor="middle" font-size="12px">
            <text x="507" y="217.5">
                220
            </text>
        </g>
        <path d="M 530 190 L 530 180" fill="none" stroke="#000000"
              stroke-width="2" stroke-miterlimit="10" pointer-events="none"/>
        <rect x="559" y="69" width="2" height="2" fill="#000000" stroke="none"
              pointer-events="none"/>
        <path d="M 549 91 C 571.02 91 571.02 91 571.02 91" fill="none"
              stroke="#000000" stroke-width="2" stroke-linecap="round"
              stroke-miterlimit="10" pointer-events="none"/>
        <path d="M 553 97 C 562.57 97 567 97 567 97" fill="none"
              stroke="#000000" stroke-width="2" stroke-linecap="round"
              stroke-miterlimit="10" pointer-events="none"/>
        <path d="M 557 103 C 560.12 103 563 103 563 103" fill="none"
              stroke="#000000" stroke-width="2" stroke-linecap="round"
              stroke-miterlimit="10" pointer-events="none"/>
        <path d="M 560 71 L 560 89" fill="#000000" stroke="#000000"
              stroke-width="2" stroke-linecap="square" stroke-miterlimit="10"
              pointer-events="none"/>
        <rect x="179" y="399" width="2" height="2" fill="#000000" stroke="none"
              pointer-events="none"/>
        <rect x="179" y="459" width="2" height="2" fill="#000000" stroke="none"
              pointer-events="none"/>
        <path d="M 172 422.26 C 194 422.26 188 422.26 188 422.26" fill="none"
              stroke="#000000" stroke-width="2" stroke-linecap="round"
              stroke-miterlimit="10" pointer-events="none"/>
        <path d="M 179.86 422.54 C 179.86 422.54 179.86 422.54 172 437.26 C 187.72 437.26 187.72 437.26 187.72 437.26 Z"
              fill="#000000" stroke="#000000" stroke-width="1.49"
              stroke-linejoin="round" stroke-linecap="round"
              stroke-miterlimit="10" pointer-events="none"/>
        <path d="M 180 401 L 180 459" fill="#000000" stroke="#000000"
              stroke-width="2" stroke-linecap="square" stroke-miterlimit="10"
              pointer-events="none"/>
        <path d="M 198.25 418.77 L 202.49 423.01 L 205.32 415.94 Z"
              fill="#000000" stroke="#000000" stroke-linejoin="round"
              stroke-linecap="square" stroke-miterlimit="10"
              pointer-events="none"/>
        <path d="M 194 427.23 L 202.49 418.74" fill="none" stroke="#000000"
              stroke-width="2" stroke-linejoin="round" stroke-linecap="round"
              stroke-miterlimit="10" pointer-events="none"/>
        <path d="M 196.57 407.71 L 200.81 411.96 L 203.64 404.89 Z"
              fill="#000000" stroke="#000000" stroke-linejoin="round"
              stroke-linecap="round" stroke-miterlimit="10"
              pointer-events="none"/>
        <path d="M 192.33 416.22 L 200.81 407.73" fill="none" stroke="#000000"
              stroke-width="2" stroke-linejoin="round" stroke-linecap="round"
              stroke-miterlimit="10" pointer-events="none"/>
        <rect x="153" y="400" width="17" height="13" fill-opacity="0"
              fill="#dae2f2" stroke="none" pointer-events="none"/>
        <g fill="#000000" font-family="Arial,Helvetica" font-weight="bold"
           text-anchor="middle" font-size="12px">
            <text x="161.5" y="411.5">
                D4
            </text>
        </g>
        <rect x="128" y="432" width="42" height="13" fill-opacity="0"
              fill="#dae2f2" stroke="none" pointer-events="none"/>
        <g fill="#000000" font-family="Arial,Helvetica" font-weight="bold"
           text-anchor="middle" font-size="12px">
            <text x="149" y="443.5">
                IR LED
            </text>
        </g>
        <rect x="179" y="469" width="2" height="2" fill="#000000" stroke="none"
              pointer-events="none"/>
        <rect x="179" y="529" width="2" height="2" fill="#000000" stroke="none"
              pointer-events="none"/>
        <path d="M 180 482 L 187 485 L 180 488" fill="none" stroke="#000000"
              stroke-width="2" stroke-linejoin="round" stroke-linecap="round"
              stroke-miterlimit="10" pointer-events="none"/>
        <path d="M 180 488 L 173 491 L 180 494" fill="none" stroke="#000000"
              stroke-width="2" stroke-linejoin="round" stroke-linecap="round"
              stroke-miterlimit="10" pointer-events="none"/>
        <path d="M 180 494 L 187 497 L 180 500" fill="none" stroke="#000000"
              stroke-width="2" stroke-linejoin="round" stroke-linecap="round"
              stroke-miterlimit="10" pointer-events="none"/>
        <path d="M 180 500 L 173 503 L 180 506" fill="none" stroke="#000000"
              stroke-width="2" stroke-linejoin="round" stroke-linecap="round"
              stroke-miterlimit="10" pointer-events="none"/>
        <path d="M 180 506 L 187 509 L 180 512" fill="none" stroke="#000000"
              stroke-width="2" stroke-linejoin="round" stroke-linecap="round"
              stroke-miterlimit="10" pointer-events="none"/>
        <path d="M 180 512 L 173 515 L 180 518" fill="none" stroke="#000000"
              stroke-width="2" stroke-linejoin="round" stroke-linecap="round"
              stroke-miterlimit="10" pointer-events="none"/>
        <path d="M 180 471 L 180 481" fill="#000000" stroke="#000000"
              stroke-width="2" stroke-linecap="square" stroke-miterlimit="10"
              pointer-events="none"/>
        <path d="M 180 519 L 180 529" fill="#000000" stroke="#000000"
              stroke-width="2" stroke-linecap="square" stroke-miterlimit="10"
              pointer-events="none"/>
        <rect x="153" y="470" width="17" height="13" fill-opacity="0"
              fill="#dae2f2" stroke="none" pointer-events="none"/>
        <g fill="#000000" font-family="Arial,Helvetica" font-weight="bold"
           text-anchor="middle" font-size="12px">
            <text x="161.5" y="481.5">
                R4
            </text>
        </g>
        <rect x="148" y="486" width="18" height="13" fill-opacity="0"
              fill="#dae2f2" stroke="none" pointer-events="none"/>
        <g fill="#000000" font-family="Arial,Helvetica" font-weight="bold"
           text-anchor="middle" font-size="12px">
            <text x="157" y="497.5">
                220
            </text>
        </g>
        <path d="M 180 470 L 180 460" fill="none" stroke="#000000"
              stroke-width="2" stroke-miterlimit="10" pointer-events="none"/>
        <rect x="209" y="349" width="2" height="2" fill="#000000" stroke="none"
              pointer-events="none"/>
        <path d="M 199 371 C 221.02 371 221.02 371 221.02 371" fill="none"
              stroke="#000000" stroke-width="2" stroke-linecap="round"
              stroke-miterlimit="10" pointer-events="none"/>
        <path d="M 203 377 C 212.57 377 217 377 217 377" fill="none"
              stroke="#000000" stroke-width="2" stroke-linecap="round"
              stroke-miterlimit="10" pointer-events="none"/>
        <path d="M 207 383 C 210.12 383 213 383 213 383" fill="none"
              stroke="#000000" stroke-width="2" stroke-linecap="round"
              stroke-miterlimit="10" pointer-events="none"/>
        <path d="M 210 351 L 210 369" fill="#000000" stroke="#000000"
              stroke-width="2" stroke-linecap="square" stroke-miterlimit="10"
              pointer-events="none"/>
        <rect x="459" y="399" width="2" height="2" fill="#000000" stroke="none"
              pointer-events="none"/>
        <rect x="459" y="459" width="2" height="2" fill="#000000" stroke="none"
              pointer-events="none"/>
        <path d="M 460 412 L 467 415 L 460 418" fill="none" stroke="#000000"
              stroke-width="2" stroke-linejoin="round" stroke-linecap="round"
              stroke-miterlimit="10" pointer-events="none"/>
        <path d="M 460 418 L 453 421 L 460 424" fill="none" stroke="#000000"
              stroke-width="2" stroke-linejoin="round" stroke-linecap="round"
              stroke-miterlimit="10" pointer-events="none"/>
        <path d="M 460 424 L 467 427 L 460 430" fill="none" stroke="#000000"
              stroke-width="2" stroke-linejoin="round" stroke-linecap="round"
              stroke-miterlimit="10" pointer-events="none"/>
        <path d="M 460 430 L 453 433 L 460 436" fill="none" stroke="#000000"
              stroke-width="2" stroke-linejoin="round" stroke-linecap="round"
              stroke-miterlimit="10" pointer-events="none"/>
        <path d="M 460 436 L 467 439 L 460 442" fill="none" stroke="#000000"
              stroke-width="2" stroke-linejoin="round" stroke-linecap="round"
              stroke-miterlimit="10" pointer-events="none"/>
        <path d="M 460 442 L 453 445 L 460 448" fill="none" stroke="#000000"
              stroke-width="2" stroke-linejoin="round" stroke-linecap="round"
              stroke-miterlimit="10" pointer-events="none"/>
        <path d="M 460 401 L 460 411" fill="#000000" stroke="#000000"
              stroke-width="2" stroke-linecap="square" stroke-miterlimit="10"
              pointer-events="none"/>
        <path d="M 460 449 L 460 459" fill="#000000" stroke="#000000"
              stroke-width="2" stroke-linecap="square" stroke-miterlimit="10"
              pointer-events="none"/>
        <rect x="433" y="400" width="17" height="13" fill-opacity="0"
              fill="#dae2f2" stroke="none" pointer-events="none"/>
        <g fill="#000000" font-family="Arial,Helvetica" font-weight="bold"
           text-anchor="middle" font-size="12px">
            <text x="441.5" y="411.5">
                R5
            </text>
        </g>
        <rect x="427" y="416" width="23" height="13" fill-opacity="0"
              fill="#dae2f2" stroke="none" pointer-events="none"/>
        <g fill="#000000" font-family="Arial,Helvetica" font-weight="bold"
           text-anchor="middle" font-size="12px">
            <text x="438.5" y="427.5">
                10K
            </text>
        </g>
        <rect x="339" y="499" width="2" height="2" fill="#000000" stroke="none"
              pointer-events="none"/>
        <path d="M 329 521 C 351.02 521 351.02 521 351.02 521" fill="none"
              stroke="#000000" stroke-width="2" stroke-linecap="round"
              stroke-miterlimit="10" pointer-events="none"/>
        <path d="M 333 527 C 342.57 527 347 527 347 527" fill="none"
              stroke="#000000" stroke-width="2" stroke-linecap="round"
              stroke-miterlimit="10" pointer-events="none"/>
        <path d="M 337 533 C 340.12 533 343 533 343 533" fill="none"
              stroke="#000000" stroke-width="2" stroke-linecap="round"
              stroke-miterlimit="10" pointer-events="none"/>
        <path d="M 340 501 L 340 519" fill="#000000" stroke="#000000"
              stroke-width="2" stroke-linecap="square" stroke-miterlimit="10"
              pointer-events="none"/>
        <rect x="339" y="399" width="2" height="2" fill="#000000" stroke="none"
              pointer-events="none"/>
        <rect x="339" y="459" width="2" height="2" fill="#000000" stroke="none"
              pointer-events="none"/>
        <ellipse cx="340" cy="430" rx="19.644082235" ry="19.644082235"
                 fill="#ffffff" stroke="#000000" stroke-width="2"
                 pointer-events="none"/>
        <path d="M 332 422.26 C 354 422.26 348 422.26 348 422.26" fill="none"
              stroke="#000000" stroke-width="2" stroke-linecap="round"
              stroke-miterlimit="10" pointer-events="none"/>
        <path d="M 339.86 422.54 C 339.86 422.54 339.86 422.54 332 437.26 C 347.72 437.26 347.72 437.26 347.72 437.26 Z"
              fill="#000000" stroke="#000000" stroke-width="1.49"
              stroke-linejoin="round" stroke-linecap="round"
              stroke-miterlimit="10" pointer-events="none"/>
        <path d="M 340 401 L 340 459" fill="#000000" stroke="#000000"
              stroke-width="2" stroke-linecap="square" stroke-miterlimit="10"
              pointer-events="none"/>
        <path d="M 364.87 423.63 L 369.11 427.87 L 362.04 430.7 Z"
              fill="#000000" stroke="#000000" stroke-linejoin="round"
              stroke-linecap="square" stroke-miterlimit="10"
              pointer-events="none"/>
        <path d="M 373.39 419.35 L 364.9 427.84" fill="none" stroke="#000000"
              stroke-width="2" stroke-linejoin="round" stroke-linecap="round"
              stroke-miterlimit="10" pointer-events="none"/>
        <path d="M 362.55 412.57 L 366.79 416.81 L 359.72 419.64 Z"
              fill="#000000" stroke="#000000" stroke-linejoin="round"
              stroke-linecap="round" stroke-miterlimit="10"
              pointer-events="none"/>
        <path d="M 371 408.36 L 362.51 416.84" fill="none" stroke="#000000"
              stroke-width="2" stroke-linejoin="round" stroke-linecap="round"
              stroke-miterlimit="10" pointer-events="none"/>
        <rect x="303" y="400" width="17" height="13" fill-opacity="0"
              fill="#dae2f2" stroke="none" pointer-events="none"/>
        <g fill="#000000" font-family="Arial,Helvetica" font-weight="bold"
           text-anchor="middle" font-size="12px">
            <text x="311.5" y="411.5">
                D5
            </text>
        </g>
        <rect x="248" y="416" width="72" height="13" fill-opacity="0"
              fill="#dae2f2" stroke="none" pointer-events="none"/>
        <g fill="#000000" font-family="Arial,Helvetica" font-weight="bold"
           text-anchor="middle" font-size="12px">
            <text x="284" y="427.5">
                Photo Diode
            </text>
        </g>
        <rect x="129" y="539" width="2" height="2" fill="#000000" stroke="none"
              pointer-events="none"/>
        <g fill="#000000" font-family="Arial,Helvetica" text-anchor="middle"
           font-size="12px">
            <text x="129.69" y="515.86">
                +3.3V
            </text>
        </g>
        <path d="M 130 521 L 130 539" fill="#000000" stroke="#000000"
              stroke-width="2" stroke-linecap="square" stroke-miterlimit="10"
              pointer-events="none"/>
        <path d="M 120 520 L 140 520" fill="none" stroke="#000000"
              stroke-width="2" stroke-linecap="square" stroke-miterlimit="10"
              pointer-events="none"/>
        <rect x="419" y="489" width="2" height="2" fill="#000000" stroke="none"
              pointer-events="none"/>
        <g fill="#000000" font-family="Arial,Helvetica" text-anchor="middle"
           font-size="12px">
            <text x="419.69" y="465.86">
                +3.3V
            </text>
        </g>
        <path d="M 420 471 L 420 489" fill="#000000" stroke="#000000"
              stroke-width="2" stroke-linecap="square" stroke-miterlimit="10"
              pointer-events="none"/>
        <path d="M 410 470 L 430 470" fill="none" stroke="#000000"
              stroke-width="2" stroke-linecap="square" stroke-miterlimit="10"
              pointer-events="none"/>
        <path d="M 420 490 L 460 490 L 460 460" fill="none" stroke="#000000"
              stroke-width="2" stroke-miterlimit="10" pointer-events="none"/>
        <path d="M 130 540 L 180 540 L 180 530" fill="none" stroke="#000000"
              stroke-width="2" stroke-miterlimit="10" pointer-events="none"/>
        <path d="M 460 400 L 460 390 L 340 390 L 340 400" fill="none"
              stroke="#000000" stroke-width="2" stroke-miterlimit="10"
              pointer-events="none"/>
        <path d="M 180 400 L 180 350 L 210 350" fill="none" stroke="#000000"
              stroke-width="2" stroke-miterlimit="10" pointer-events="none"/>
        <path d="M 190 120 L 190 70 L 220 70" fill="none" stroke="#000000"
              stroke-width="2" stroke-miterlimit="10" pointer-events="none"/>
        <path d="M 360 120 L 360 70 L 390 70" fill="none" stroke="#000000"
              stroke-width="2" stroke-miterlimit="10" pointer-events="none"/>
        <path d="M 530 120 L 530 70 L 560 70" fill="none" stroke="#000000"
              stroke-width="2" stroke-miterlimit="10" pointer-events="none"/>
        <rect x="329" y="479" width="2" height="2" fill="#000000" stroke="none"
              pointer-events="none"/>
        <path d="M 312 480 L 329 480" fill="#000000" stroke="#000000"
              stroke-width="2" stroke-linecap="square" stroke-miterlimit="10"
              pointer-events="none"/>
        <path d="M 307.06 474.34 L 312.72 480 L 307.06 485.66" fill="none"
              stroke="#000000" stroke-width="2" stroke-linecap="square"
              stroke-miterlimit="10" pointer-events="none"/>
        <rect x="253" y="470" width="47" height="13" fill-opacity="0"
              fill="#dae2f2" stroke="none" pointer-events="none"/>
        <g fill="#000000" font-family="Arial,Helvetica" font-weight="bold"
           text-anchor="middle" font-size="12px">
            <text x="276.5" y="481.5">
                GPIO36
            </text>
        </g>
        <path d="M 340 500 L 340 460" fill="none" stroke="#000000"
              stroke-width="2" stroke-miterlimit="10" pointer-events="none"/>
        <path d="M 330 480 L 338 480" fill="none" stroke="#000000"
              stroke-width="2" stroke-miterlimit="10" pointer-events="none"/>
        <ellipse cx="340" cy="480" rx="2" ry="2" fill="#000000" stroke="#000000"
                 stroke-width="2" pointer-events="none"/>
        <rect x="169" y="259" width="2" height="2" fill="#000000" stroke="none"
              pointer-events="none"/>
        <path d="M 152 260 L 169 260" fill="#000000" stroke="#000000"
              stroke-width="2" stroke-linecap="square" stroke-miterlimit="10"
              pointer-events="none"/>
        <path d="M 156.91 254.34 L 151.26 260 L 156.91 265.66" fill="none"
              stroke="#000000" stroke-width="2" stroke-linecap="square"
              stroke-miterlimit="10" pointer-events="none"/>
        <rect x="103" y="250" width="47" height="13" fill-opacity="0"
              fill="#dae2f2" stroke="none" pointer-events="none"/>
        <g fill="#000000" font-family="Arial,Helvetica" font-weight="bold"
           text-anchor="middle" font-size="12px">
            <text x="126.5" y="261.5">
                GPIO17
            </text>
        </g>
        <path d="M 190 250 L 190 260 L 170 260" fill="none" stroke="#000000"
              stroke-width="2" stroke-miterlimit="10" pointer-events="none"/>
        <rect x="339" y="259" width="2" height="2" fill="#000000" stroke="none"
              pointer-events="none"/>
        <path d="M 322 260 L 339 260" fill="#000000" stroke="#000000"
              stroke-width="2" stroke-linecap="square" stroke-miterlimit="10"
              pointer-events="none"/>
        <path d="M 326.91 254.34 L 321.26 260 L 326.91 265.66" fill="none"
              stroke="#000000" stroke-width="2" stroke-linecap="square"
              stroke-miterlimit="10" pointer-events="none"/>
        <rect x="273" y="250" width="47" height="13" fill-opacity="0"
              fill="#dae2f2" stroke="none" pointer-events="none"/>
        <g fill="#000000" font-family="Arial,Helvetica" font-weight="bold"
           text-anchor="middle" font-size="12px">
            <text x="296.5" y="261.5">
                GPIO16
            </text>
        </g>
        <path d="M 340 260 L 360 260 L 360 250" fill="none" stroke="#000000"
              stroke-width="2" stroke-miterlimit="10" pointer-events="none"/>
        <rect x="509" y="259" width="2" height="2" fill="#000000" stroke="none"
              pointer-events="none"/>
        <path d="M 492 260 L 509 260" fill="#000000" stroke="#000000"
              stroke-width="2" stroke-linecap="square" stroke-miterlimit="10"
              pointer-events="none"/>
        <path d="M 496.91 254.34 L 491.26 260 L 496.91 265.66" fill="none"
              stroke="#000000" stroke-width="2" stroke-linecap="square"
              stroke-miterlimit="10" pointer-events="none"/>
        <rect x="443" y="250" width="47" height="13" fill-opacity="0"
              fill="#dae2f2" stroke="none" pointer-events="none"/>
        <g fill="#000000" font-family="Arial,Helvetica" font-weight="bold"
           text-anchor="middle" font-size="12px">
            <text x="466.5" y="261.5">
                GPIO22
            </text>
        </g>
        <path d="M 510 260 L 530 260 L 530 250" fill="none" stroke="#000000"
              stroke-width="2" stroke-miterlimit="10" pointer-events="none"/>
    </g>
</svg>